<svg width="22" height="21" viewBox="0 0 22 21" fill="none" xmlns="http://www.w3.org/2000/svg">
<path d="M10.8424 0.710083C10.5118 0.710083 10.1788 0.880925 10.01 1.2203L7.22681 6.77034L1.00621 7.65918C0.244169 7.76768 -0.0606478 8.69115 0.490367 9.21984L4.99227 13.5394L3.9301 19.6389C3.82694 20.2299 4.30526 20.7101 4.8469 20.7101C4.98993 20.7101 5.13765 20.6778 5.28067 20.6039L10.8424 17.725L16.4065 20.6039C16.5495 20.6778 16.6972 20.7101 16.8403 20.7101C17.3819 20.7101 17.8579 20.2299 17.7547 19.6389L16.6925 13.5394L21.1944 9.21984C21.7455 8.69115 21.4406 7.76768 20.6786 7.65918L14.458 6.77034L11.6748 1.2203C11.506 0.880925 11.173 0.710083 10.8424 0.710083Z" fill="#FFE600"/>
</svg>
